<?xml version="1.0" encoding="UTF-8" standalone="no"?>
<!-- Generator: Adobe Illustrator 23.0.3, SVG Export Plug-In . SVG Version: 6.00 Build 0) -->

<svg
   id="Layer_1"
   x="0px"
   y="0px"
   viewBox="0 0 1064.2229 213.93565"
   xml:space="preserve"
   version="1.1"
   sodipodi:docname="RealTLottery_Logo.svg"
   inkscape:version="1.2.2 (732a01da63, 2022-12-09)"
   width="1064.2229"
   height="213.93565"
   inkscape:export-filename="RealTLottery_Logo.svg"
   inkscape:export-xdpi="96"
   inkscape:export-ydpi="96"
   xmlns:inkscape="http://www.inkscape.org/namespaces/inkscape"
   xmlns:sodipodi="http://sodipodi.sourceforge.net/DTD/sodipodi-0.dtd"
   xmlns="http://www.w3.org/2000/svg"
   xmlns:svg="http://www.w3.org/2000/svg"><defs
   id="defs105" /><sodipodi:namedview
   id="namedview103"
   pagecolor="#ffffff"
   bordercolor="#000000"
   borderopacity="0.25"
   inkscape:showpageshadow="2"
   inkscape:pageopacity="0.0"
   inkscape:pagecheckerboard="0"
   inkscape:deskcolor="#d1d1d1"
   showgrid="false"
   inkscape:zoom="0.37065973"
   inkscape:cx="350.72599"
   inkscape:cy="-51.259953"
   inkscape:window-width="1419"
   inkscape:window-height="1041"
   inkscape:window-x="371"
   inkscape:window-y="0"
   inkscape:window-maximized="0"
   inkscape:current-layer="g1496" /> <style
   type="text/css"
   id="style58"> .st0{fill:#1A1F28;} .st1{fill:#F2A91E;} .st2{opacity:0.4;fill:#72A8DA;} .st3{fill:#C56728;} .st4{fill:#EB8523;} .st5{fill:none;stroke:#1A1F28;stroke-width:9.8074;stroke-miterlimit:10;} .st6{fill:none;stroke:#1A1F28;stroke-width:13.0765;stroke-miterlimit:10;} .st7{fill:none;stroke:#1A1F28;stroke-width:9.8107;stroke-miterlimit:10;} </style> <g
   id="g100"
   transform="translate(288.18627,351.95372)">       <g
   id="g1496"
   transform="translate(-698.21743,-358.64721)"><path
     class="st0"
     d="m 430.00116,129.22914 v 29.06 h -19.97 V 64.639136 h 39.94 c 21.62,0 37.18,12.67 37.18,32.22 0,12.810004 -6.89,22.860004 -17.76,28.230004 l 23.82,33.19 h -23.83 l -20.52,-29.06 h -18.86 z m 19.28,-18.32 c 10.05,0 18.18,-5.51 18.18,-14.050004 0,-8.68 -8.13,-14.05 -18.18,-14.05 h -19.28 v 28.090004 h 19.28 z"
     id="path60" /><path
     class="st0"
     d="m 560.44116,130.18914 h -48.61 c 1.52,7.71 6.61,13.77 17.08,13.77 5.37,0 9.09,-1.65 11.15,-4.96 h 19.97 c -3.58,12.67 -15.97,21.35 -31.54,21.35 -21.21,0 -35.53,-15.29 -35.53,-34.98 0,-20.38 14.18,-35.120004 34.98,-35.120004 18.87,0 32.91,13.360004 32.91,33.740004 0,2.76 -0.13,4.27 -0.41,6.2 z m -48.48,-11.29 h 29.88 c -1.1,-8.26 -6.06,-12.81 -13.77,-12.81 -9.22,0 -14.32,5.37 -16.11,12.81 z"
     id="path62" /><path
     class="st0"
     d="m 640.20116,92.319136 v 65.970004 h -19.14 v -3.86 c -5.1,3.3 -11.29,5.23 -18.73,5.23 -18.18,0 -32.91,-15.15 -32.91,-34.29 0,-19.42 14.74,-34.430004 32.91,-34.430004 7.44,0 13.63,1.93 18.73,5.23 v -3.86 h 19.14 z m -19.14,43.520004 v -21.07 c -4.27,-5.78 -9.92,-7.71 -15.56,-7.71 -10.05,0 -17.08,8.54 -17.08,18.32 0,9.64 7.02,18.04 17.08,18.04 5.64,-0.01 11.29,-1.93 15.56,-7.58 z"
     id="path64" /><path
     class="st0"
     d="m 672.48116,158.28914 h -19.14 V 64.619136 h 19.14 z"
     id="path66" /><path
     class="st1"
     d="m 734.67116,82.819136 v 75.470004 h -19.97 V 82.819136 h -31.26 v -18.18 h 82.49 v 18.18 z"
     id="path68" /><g
     id="g98"
     transform="translate(396.80116,-32.430864)"> <polygon
   class="st2"
   points="477.34,236.23 412.66,198.97 412.66,105.16 477.34,67.9 542.03,105.16 542.03,198.97 "
   id="polygon70" /> <polygon
   class="st3"
   points="475.23,235.42 436.52,215.57 438.55,121.01 477.55,141.14 "
   id="polygon72" /> <polygon
   class="st1"
   points="478.06,234.25 516.76,214.4 516.12,119.16 477.12,139.29 "
   id="polygon74" /> <polygon
   class="st4"
   points="514.05,117.88 476.06,94.62 440.01,117.1 480.32,138.42 "
   id="polygon76" /> <polygon
   class="st5"
   points="477.34,236.76 438.26,215.11 438.26,119.91 477.34,97.39 516.43,119.91 516.43,215.11 "
   id="polygon78" /> <polygon
   class="st6"
   points="477.34,238.18 394.23,190.3 394.23,94.55 477.34,46.67 560.45,94.55 560.45,190.3 "
   id="polygon80" /> <line
   class="st7"
   x1="476.97"
   y1="139.99001"
   x2="476.97"
   y2="238.49001"
   id="line82" /> <line
   class="st5"
   x1="477.26001"
   y1="140.05"
   x2="560.90002"
   y2="94.550003"
   id="line84" /> <line
   class="st5"
   x1="477.26001"
   y1="140.05"
   x2="394.41"
   y2="94.550003"
   id="line86" /> <ellipse
   class="st0"
   cx="477.34"
   cy="244.57001"
   rx="84.050003"
   ry="8.4899998"
   id="ellipse88" /> <line
   class="st5"
   x1="476.20999"
   y1="172.92"
   x2="437.97"
   y2="151.3"
   id="line90" /> <line
   class="st5"
   x1="476.20999"
   y1="203.87"
   x2="437.97"
   y2="182.24001"
   id="line92" /> <line
   class="st7"
   x1="477.10999"
   y1="172.92"
   x2="515.35999"
   y2="151.3"
   id="line94" /> <line
   class="st5"
   x1="477.10999"
   y1="203.87"
   x2="515.35999"
   y2="182.24001"
   id="line96" /> </g><text
     xml:space="preserve"
     style="font-style:normal;font-variant:normal;font-weight:normal;font-stretch:normal;font-size:122.667px;font-family:'Poor Richard';-inkscape-font-specification:'Poor Richard';letter-spacing:0px;fill:#000000;fill-opacity:0.581731;stroke-width:0.915"
     x="983.59271"
     y="158.44501"
     id="text366"><tspan
       sodipodi:role="line"
       id="tspan364"
       x="983.59271"
       y="158.44501"
       style="font-style:normal;font-variant:normal;font-weight:600;font-stretch:normal;font-size:122.667px;font-family:Poppins;-inkscape-font-specification:'Poppins Semi-Bold';fill:#1a1f28;fill-opacity:1"><tspan
   style="font-size:133.333px"
   id="tspan1468"
   dx="-5">L</tspan><tspan
   style="letter-spacing:-0.06px"
   id="tspan1498">o</tspan><tspan
   style="font-style:normal;font-variant:normal;font-weight:bold;font-stretch:normal;font-size:133.333px;font-family:Poppins;-inkscape-font-specification:'Poppins Bold';fill:#f2a91e;fill-opacity:1"
   id="tspan1462"><tspan
   style="letter-spacing:-0.06px"
   id="tspan1500">T</tspan>T</tspan>ery</tspan></text></g></g> </svg>
